<svg id="visual" viewBox="0 0 2000 1000" width="2000" height="1000" xmlns="http://www.w3.org/2000/svg" xmlns:xlink="http://www.w3.org/1999/xlink" version="1.1"><g stroke-width="1" stroke-linejoin="bevel"><path d="M1025 543L1049 638.7L1184.7 485Z" fill="#103749" stroke="#103749"></path><path d="M1049 638.7L1158.7 701.7L1184.7 485Z" fill="#0e2f40" stroke="#0e2f40"></path><path d="M800.3 688.7L1026 777.3L1049 638.7Z" fill="#061825" stroke="#061825"></path><path d="M1049 638.7L1026 777.3L1158.7 701.7Z" fill="#081c29" stroke="#081c29"></path><path d="M1026 777.3L1201.7 787.3L1158.7 701.7Z" fill="#00101c" stroke="#00101c"></path><path d="M1158.7 701.7L1330.3 701.7L1184.7 485Z" fill="#103749" stroke="#103749"></path><path d="M1184.7 485L1152.7 331.3L1025 543Z" fill="#00101c" stroke="#00101c"></path><path d="M1201.7 787.3L1330.3 701.7L1158.7 701.7Z" fill="#091f2d" stroke="#091f2d"></path><path d="M1184.7 485L1332.3 363.3L1152.7 331.3Z" fill="#0a2332" stroke="#0a2332"></path><path d="M1330.3 701.7L1371.3 529L1184.7 485Z" fill="#061825" stroke="#061825"></path><path d="M1371.3 529L1332.3 363.3L1184.7 485Z" fill="#0d2b3b" stroke="#0d2b3b"></path><path d="M948 288.3L871.3 355.3L1025 543Z" fill="#061825" stroke="#061825"></path><path d="M1025 543L800.3 688.7L1049 638.7Z" fill="#00101c" stroke="#00101c"></path><path d="M1152.7 331.3L948 288.3L1025 543Z" fill="#0b2737" stroke="#0b2737"></path><path d="M1020 142.7L948 288.3L1152.7 331.3Z" fill="#081c29" stroke="#081c29"></path><path d="M871.3 355.3L790.3 534L1025 543Z" fill="#091f2d" stroke="#091f2d"></path><path d="M790.3 534L800.3 688.7L1025 543Z" fill="#091f2d" stroke="#091f2d"></path><path d="M1140.7 1000L1352.3 888.3L1201.7 787.3Z" fill="#041420" stroke="#041420"></path><path d="M1201.7 787.3L1352.3 888.3L1330.3 701.7Z" fill="#00101c" stroke="#00101c"></path><path d="M1330.3 701.7L1526 623.7L1371.3 529Z" fill="#0e2f40" stroke="#0e2f40"></path><path d="M1529 817.3L1526 623.7L1330.3 701.7Z" fill="#103749" stroke="#103749"></path><path d="M1371.3 529L1552 501L1332.3 363.3Z" fill="#061825" stroke="#061825"></path><path d="M871.3 355.3L710.7 509L790.3 534Z" fill="#061825" stroke="#061825"></path><path d="M790.3 534L713.7 690.7L800.3 688.7Z" fill="#103749" stroke="#103749"></path><path d="M1507 285.3L1282.3 179.7L1332.3 363.3Z" fill="#103749" stroke="#103749"></path><path d="M1332.3 363.3L1282.3 179.7L1152.7 331.3Z" fill="#00101c" stroke="#00101c"></path><path d="M710.7 509L713.7 690.7L790.3 534Z" fill="#0e2f40" stroke="#0e2f40"></path><path d="M1015 1000L1140.7 1000L1026 777.3Z" fill="#041420" stroke="#041420"></path><path d="M1026 777.3L1140.7 1000L1201.7 787.3Z" fill="#0d2b3b" stroke="#0d2b3b"></path><path d="M783.3 838.3L1026 777.3L800.3 688.7Z" fill="#0d2b3b" stroke="#0d2b3b"></path><path d="M1282.3 179.7L1200.7 143.7L1152.7 331.3Z" fill="#081c29" stroke="#081c29"></path><path d="M1526 623.7L1552 501L1371.3 529Z" fill="#0d2b3b" stroke="#0d2b3b"></path><path d="M713.7 690.7L783.3 838.3L800.3 688.7Z" fill="#103749" stroke="#103749"></path><path d="M1200.7 143.7L1020 142.7L1152.7 331.3Z" fill="#081c29" stroke="#081c29"></path><path d="M948 288.3L842.3 204.7L871.3 355.3Z" fill="#041420" stroke="#041420"></path><path d="M871.3 355.3L688.7 306.3L710.7 509Z" fill="#0a2332" stroke="#0a2332"></path><path d="M841.3 1000L1015 1000L1026 777.3Z" fill="#103749" stroke="#103749"></path><path d="M1020 142.7L842.3 204.7L948 288.3Z" fill="#0f3344" stroke="#0f3344"></path><path d="M1352.3 888.3L1529 817.3L1330.3 701.7Z" fill="#081c29" stroke="#081c29"></path><path d="M1526 623.7L1631.7 542L1552 501Z" fill="#00101c" stroke="#00101c"></path><path d="M1482 1000L1529 817.3L1352.3 888.3Z" fill="#0b2737" stroke="#0b2737"></path><path d="M1552 501L1507 285.3L1332.3 363.3Z" fill="#0b2737" stroke="#0b2737"></path><path d="M1140.7 1000L1356.3 1000L1352.3 888.3Z" fill="#091f2d" stroke="#091f2d"></path><path d="M1672.7 717.7L1631.7 542L1526 623.7Z" fill="#0b2737" stroke="#0b2737"></path><path d="M1552 501L1648.7 338.3L1507 285.3Z" fill="#0f3344" stroke="#0f3344"></path><path d="M842.3 204.7L688.7 306.3L871.3 355.3Z" fill="#081c29" stroke="#081c29"></path><path d="M550 665.7L611.7 793.3L713.7 690.7Z" fill="#0a2332" stroke="#0a2332"></path><path d="M678.7 1000L841.3 1000L783.3 838.3Z" fill="#0d2b3b" stroke="#0d2b3b"></path><path d="M783.3 838.3L841.3 1000L1026 777.3Z" fill="#091f2d" stroke="#091f2d"></path><path d="M1356.3 1000L1482 1000L1352.3 888.3Z" fill="#061825" stroke="#061825"></path><path d="M1529 817.3L1672.7 717.7L1526 623.7Z" fill="#041420" stroke="#041420"></path><path d="M550 665.7L713.7 690.7L710.7 509Z" fill="#00101c" stroke="#00101c"></path><path d="M713.7 690.7L611.7 793.3L783.3 838.3Z" fill="#0f3344" stroke="#0f3344"></path><path d="M1696.7 813.3L1672.7 717.7L1529 817.3Z" fill="#081c29" stroke="#081c29"></path><path d="M1200.7 143.7L1118.7 0L1020 142.7Z" fill="#0d2b3b" stroke="#0d2b3b"></path><path d="M1020 142.7L877.3 0L842.3 204.7Z" fill="#0f3344" stroke="#0f3344"></path><path d="M842.3 204.7L637.7 161.7L688.7 306.3Z" fill="#00101c" stroke="#00101c"></path><path d="M1372.3 0L1118.7 0L1200.7 143.7Z" fill="#041420" stroke="#041420"></path><path d="M1372.3 0L1200.7 143.7L1282.3 179.7Z" fill="#041420" stroke="#041420"></path><path d="M1688.7 117.7L1498 138.7L1507 285.3Z" fill="#061825" stroke="#061825"></path><path d="M1507 285.3L1498 138.7L1282.3 179.7Z" fill="#0a2332" stroke="#0a2332"></path><path d="M1777.3 524L1648.7 338.3L1631.7 542Z" fill="#061825" stroke="#061825"></path><path d="M1631.7 542L1648.7 338.3L1552 501Z" fill="#103749" stroke="#103749"></path><path d="M508 458L550 665.7L710.7 509Z" fill="#061825" stroke="#061825"></path><path d="M1118.7 0L963 0L1020 142.7Z" fill="#0e2f40" stroke="#0e2f40"></path><path d="M963 0L877.3 0L1020 142.7Z" fill="#0b2737" stroke="#0b2737"></path><path d="M1498 138.7L1372.3 0L1282.3 179.7Z" fill="#081c29" stroke="#081c29"></path><path d="M611.7 793.3L678.7 1000L783.3 838.3Z" fill="#103749" stroke="#103749"></path><path d="M539 866.3L678.7 1000L611.7 793.3Z" fill="#0f3344" stroke="#0f3344"></path><path d="M1706.7 1000L1696.7 813.3L1529 817.3Z" fill="#0e2f40" stroke="#0e2f40"></path><path d="M1672.7 717.7L1777.3 524L1631.7 542Z" fill="#0d2b3b" stroke="#0d2b3b"></path><path d="M506 284.3L508 458L688.7 306.3Z" fill="#061825" stroke="#061825"></path><path d="M688.7 306.3L508 458L710.7 509Z" fill="#0f3344" stroke="#0f3344"></path><path d="M877.3 0L637.7 161.7L842.3 204.7Z" fill="#091f2d" stroke="#091f2d"></path><path d="M1857.3 667.7L1777.3 524L1672.7 717.7Z" fill="#0b2737" stroke="#0b2737"></path><path d="M383.3 832.3L539 866.3L550 665.7Z" fill="#061825" stroke="#061825"></path><path d="M550 665.7L539 866.3L611.7 793.3Z" fill="#061825" stroke="#061825"></path><path d="M637.7 161.7L506 284.3L688.7 306.3Z" fill="#0b2737" stroke="#0b2737"></path><path d="M1688.7 117.7L1534 0L1498 138.7Z" fill="#0b2737" stroke="#0b2737"></path><path d="M1498 138.7L1534 0L1372.3 0Z" fill="#091f2d" stroke="#091f2d"></path><path d="M1688.7 117.7L1507 285.3L1648.7 338.3Z" fill="#0e2f40" stroke="#0e2f40"></path><path d="M1783.3 122.7L1688.7 117.7L1648.7 338.3Z" fill="#0f3344" stroke="#0f3344"></path><path d="M1482 1000L1706.7 1000L1529 817.3Z" fill="#0b2737" stroke="#0b2737"></path><path d="M1696.7 813.3L1857.3 667.7L1672.7 717.7Z" fill="#0e2f40" stroke="#0e2f40"></path><path d="M1870.3 848.3L1857.3 667.7L1696.7 813.3Z" fill="#00101c" stroke="#00101c"></path><path d="M1777.3 524L1862.3 322.3L1648.7 338.3Z" fill="#0a2332" stroke="#0a2332"></path><path d="M877.3 0L639.7 0L637.7 161.7Z" fill="#091f2d" stroke="#091f2d"></path><path d="M637.7 161.7L497 153.7L506 284.3Z" fill="#00101c" stroke="#00101c"></path><path d="M639.7 0L497 153.7L637.7 161.7Z" fill="#041420" stroke="#041420"></path><path d="M314.3 547L367.3 659.7L508 458Z" fill="#0a2332" stroke="#0a2332"></path><path d="M508 458L367.3 659.7L550 665.7Z" fill="#0a2332" stroke="#0a2332"></path><path d="M314.3 547L508 458L357.3 303.3Z" fill="#0b2737" stroke="#0b2737"></path><path d="M539 866.3L483 1000L678.7 1000Z" fill="#0b2737" stroke="#0b2737"></path><path d="M383.3 832.3L483 1000L539 866.3Z" fill="#081c29" stroke="#081c29"></path><path d="M2000 383.3L1862.3 322.3L1777.3 524Z" fill="#0b2737" stroke="#0b2737"></path><path d="M367.3 659.7L383.3 832.3L550 665.7Z" fill="#0d2b3b" stroke="#0d2b3b"></path><path d="M1862.3 322.3L1783.3 122.7L1648.7 338.3Z" fill="#0b2737" stroke="#0b2737"></path><path d="M1688.7 117.7L1690.7 0L1534 0Z" fill="#0f3344" stroke="#0f3344"></path><path d="M1706.7 1000L1870.3 848.3L1696.7 813.3Z" fill="#0b2737" stroke="#0b2737"></path><path d="M1857.3 667.7L2000 541L1777.3 524Z" fill="#081c29" stroke="#081c29"></path><path d="M1783.3 122.7L1690.7 0L1688.7 117.7Z" fill="#081c29" stroke="#081c29"></path><path d="M357.3 303.3L508 458L506 284.3Z" fill="#0f3344" stroke="#0f3344"></path><path d="M367.3 659.7L221.7 867.3L383.3 832.3Z" fill="#041420" stroke="#041420"></path><path d="M306.3 126.7L357.3 303.3L497 153.7Z" fill="#00101c" stroke="#00101c"></path><path d="M497 153.7L357.3 303.3L506 284.3Z" fill="#061825" stroke="#061825"></path><path d="M1706.7 1000L1841.3 1000L1870.3 848.3Z" fill="#0e2f40" stroke="#0e2f40"></path><path d="M221.7 867.3L379.3 1000L383.3 832.3Z" fill="#0b2737" stroke="#0b2737"></path><path d="M383.3 832.3L379.3 1000L483 1000Z" fill="#0d2b3b" stroke="#0d2b3b"></path><path d="M2000 642.7L2000 541L1857.3 667.7Z" fill="#0a2332" stroke="#0a2332"></path><path d="M2000 155.7L1869.3 0L1783.3 122.7Z" fill="#091f2d" stroke="#091f2d"></path><path d="M2000 642.7L1857.3 667.7L2000 782.3Z" fill="#091f2d" stroke="#091f2d"></path><path d="M2000 782.3L1857.3 667.7L1870.3 848.3Z" fill="#0d2b3b" stroke="#0d2b3b"></path><path d="M639.7 0L450 0L497 153.7Z" fill="#061825" stroke="#061825"></path><path d="M2000 541L2000 383.3L1777.3 524Z" fill="#041420" stroke="#041420"></path><path d="M1783.3 122.7L1869.3 0L1690.7 0Z" fill="#0a2332" stroke="#0a2332"></path><path d="M2000 1000L2000 782.3L1870.3 848.3Z" fill="#0f3344" stroke="#0f3344"></path><path d="M357.3 303.3L203.7 361.3L314.3 547Z" fill="#0b2737" stroke="#0b2737"></path><path d="M388.3 0L306.3 126.7L497 153.7Z" fill="#00101c" stroke="#00101c"></path><path d="M450 0L388.3 0L497 153.7Z" fill="#00101c" stroke="#00101c"></path><path d="M2000 155.7L1783.3 122.7L1862.3 322.3Z" fill="#091f2d" stroke="#091f2d"></path><path d="M306.3 126.7L203.7 361.3L357.3 303.3Z" fill="#0e2f40" stroke="#0e2f40"></path><path d="M163.7 699.7L221.7 867.3L367.3 659.7Z" fill="#103749" stroke="#103749"></path><path d="M163.7 699.7L367.3 659.7L314.3 547Z" fill="#00101c" stroke="#00101c"></path><path d="M203.7 361.3L173.7 454L314.3 547Z" fill="#0a2332" stroke="#0a2332"></path><path d="M2000 383.3L2000 155.7L1862.3 322.3Z" fill="#0e2f40" stroke="#0e2f40"></path><path d="M173.7 454L163.7 699.7L314.3 547Z" fill="#0f3344" stroke="#0f3344"></path><path d="M1841.3 1000L2000 1000L1870.3 848.3Z" fill="#103749" stroke="#103749"></path><path d="M0 1000L196.7 1000L221.7 867.3Z" fill="#0a2332" stroke="#0a2332"></path><path d="M221.7 867.3L196.7 1000L379.3 1000Z" fill="#081c29" stroke="#081c29"></path><path d="M2000 155.7L2000 0L1869.3 0Z" fill="#00101c" stroke="#00101c"></path><path d="M0 300.3L0 506L173.7 454Z" fill="#061825" stroke="#061825"></path><path d="M173.7 454L0 506L163.7 699.7Z" fill="#0d2b3b" stroke="#0d2b3b"></path><path d="M306.3 126.7L121.7 140.7L203.7 361.3Z" fill="#0a2332" stroke="#0a2332"></path><path d="M140.7 0L121.7 140.7L306.3 126.7Z" fill="#0e2f40" stroke="#0e2f40"></path><path d="M0 300.3L173.7 454L203.7 361.3Z" fill="#061825" stroke="#061825"></path><path d="M163.7 699.7L0 794.3L221.7 867.3Z" fill="#0a2332" stroke="#0a2332"></path><path d="M0 506L0 718.7L163.7 699.7Z" fill="#061825" stroke="#061825"></path><path d="M121.7 140.7L0 300.3L203.7 361.3Z" fill="#0e2f40" stroke="#0e2f40"></path><path d="M388.3 0L140.7 0L306.3 126.7Z" fill="#0e2f40" stroke="#0e2f40"></path><path d="M0 718.7L0 794.3L163.7 699.7Z" fill="#00101c" stroke="#00101c"></path><path d="M0 181.7L0 300.3L121.7 140.7Z" fill="#0b2737" stroke="#0b2737"></path><path d="M0 0L0 181.7L121.7 140.7Z" fill="#00101c" stroke="#00101c"></path><path d="M0 794.3L0 1000L221.7 867.3Z" fill="#041420" stroke="#041420"></path><path d="M140.7 0L0 0L121.7 140.7Z" fill="#091f2d" stroke="#091f2d"></path></g></svg>